<svg width="126" height="27" viewBox="0 0 126 27" fill="none" xmlns="http://www.w3.org/2000/svg">
<path d="M50.068 5.6L44.92 21H42.61L38.408 8.702L34.206 21H31.852L26.704 5.6H28.97L33.128 18.118L37.462 5.6H39.486L43.732 18.184L47.978 5.6H50.068ZM55.8164 9.23C57.4297 9.23 58.6617 9.626 59.5124 10.418C60.3777 11.21 60.8104 12.3907 60.8104 13.96V21H58.8084V19.46C58.4564 20.0027 57.9504 20.4207 57.2904 20.714C56.645 20.9927 55.875 21.132 54.9804 21.132C53.675 21.132 52.6264 20.8167 51.8344 20.186C51.057 19.5553 50.6684 18.7267 50.6684 17.7C50.6684 16.6733 51.0424 15.852 51.7904 15.236C52.5384 14.6053 53.7264 14.29 55.3544 14.29H58.6984V13.872C58.6984 12.9627 58.4344 12.266 57.9064 11.782C57.3784 11.298 56.601 11.056 55.5744 11.056C54.885 11.056 54.2104 11.1733 53.5504 11.408C52.8904 11.628 52.333 11.9287 51.8784 12.31L50.9984 10.726C51.5997 10.242 52.3184 9.87533 53.1544 9.626C53.9904 9.362 54.8777 9.23 55.8164 9.23ZM55.3324 19.504C56.139 19.504 56.8357 19.328 57.4224 18.976C58.009 18.6093 58.4344 18.096 58.6984 17.436V15.808H55.4424C53.653 15.808 52.7584 16.4093 52.7584 17.612C52.7584 18.1987 52.9857 18.6607 53.4404 18.998C53.895 19.3353 54.5257 19.504 55.3324 19.504ZM64.7188 4.676H66.8308V21H64.7188V4.676ZM75.3953 15.566L72.9753 17.81V21H70.8633V4.676H72.9753V15.148L79.3333 9.34H81.8853L76.9793 14.158L82.3693 21H79.7733L75.3953 15.566ZM91.614 21.176C90.074 21.176 88.6806 20.8387 87.434 20.164C86.202 19.4747 85.234 18.536 84.53 17.348C83.826 16.1453 83.474 14.796 83.474 13.3C83.474 11.804 83.826 10.462 84.53 9.274C85.234 8.07133 86.2093 7.13267 87.456 6.458C88.7026 5.76867 90.096 5.424 91.636 5.424C92.8386 5.424 93.9386 5.62933 94.936 6.04C95.9333 6.436 96.784 7.03 97.488 7.822L96.058 9.208C94.8993 7.99067 93.4546 7.382 91.724 7.382C90.58 7.382 89.546 7.63867 88.622 8.152C87.698 8.66533 86.972 9.37667 86.444 10.286C85.9306 11.1807 85.674 12.1853 85.674 13.3C85.674 14.4147 85.9306 15.4267 86.444 16.336C86.972 17.2307 87.698 17.9347 88.622 18.448C89.546 18.9613 90.58 19.218 91.724 19.218C93.44 19.218 94.8846 18.602 96.058 17.37L97.488 18.756C96.784 19.548 95.926 20.1493 94.914 20.56C93.9166 20.9707 92.8166 21.176 91.614 21.176ZM100.318 9.34H102.43V21H100.318V9.34ZM101.374 7.096C100.964 7.096 100.619 6.964 100.34 6.7C100.076 6.436 99.9444 6.11333 99.9444 5.732C99.9444 5.35067 100.076 5.028 100.34 4.764C100.619 4.48533 100.964 4.346 101.374 4.346C101.785 4.346 102.122 4.478 102.386 4.742C102.665 4.99133 102.804 5.30667 102.804 5.688C102.804 6.084 102.665 6.42133 102.386 6.7C102.122 6.964 101.785 7.096 101.374 7.096ZM113.019 20.318C112.711 20.582 112.33 20.7873 111.875 20.934C111.42 21.066 110.951 21.132 110.467 21.132C109.294 21.132 108.384 20.8167 107.739 20.186C107.094 19.5553 106.771 18.6533 106.771 17.48V11.078H104.791V9.34H106.771V6.788H108.883V9.34H112.227V11.078H108.883V17.392C108.883 18.0227 109.037 18.5067 109.345 18.844C109.668 19.1813 110.122 19.35 110.709 19.35C111.354 19.35 111.904 19.1667 112.359 18.8L113.019 20.318ZM125.675 9.34L120.021 22.166C119.523 23.354 118.936 24.19 118.261 24.674C117.601 25.158 116.802 25.4 115.863 25.4C115.291 25.4 114.734 25.3047 114.191 25.114C113.663 24.938 113.223 24.674 112.871 24.322L113.773 22.738C114.375 23.31 115.071 23.596 115.863 23.596C116.377 23.596 116.802 23.4567 117.139 23.178C117.491 22.914 117.807 22.452 118.085 21.792L118.459 20.978L113.311 9.34H115.511L119.581 18.668L123.607 9.34H125.675Z" fill="white"/>
<path d="M4.66667 24L1 19.3846L6.5 14.7692L12 22.4615L17.5 19.3846L13.8333 10.1538L4.66667 5.53846L12 4" stroke="white" stroke-width="2" stroke-linecap="round" stroke-linejoin="round"/>
</svg>
